<svg width="220" height="220" viewBox="0 0 220 220" fill="none" xmlns="http://www.w3.org/2000/svg">
  <rect width="220" height="220" rx="36" fill="#F8FAFC"/>
  <circle cx="110" cy="72" r="34" fill="#FCD7B8"/>
  <path d="M66 58C72 28 148 28 154 58L142 50L130 58L118 44L102 58L90 48L78 60L66 58Z" fill="#4338CA"/>
  <rect x="62" y="112" width="96" height="70" rx="26" fill="#4F46E5"/>
  <rect x="92" y="116" width="36" height="60" rx="16" fill="#F8FAFC" opacity="0.85"/>
  <circle cx="96" cy="72" r="5" fill="#1E293B"/>
  <circle cx="124" cy="72" r="5" fill="#1E293B"/>
  <path d="M96 88C104 96 116 96 124 88" stroke="#1E293B" stroke-width="4" stroke-linecap="round"/>
  <path d="M58 132L30 176L58 182L82 144L58 132Z" fill="#0EA5E9"/>
  <path d="M162 132L190 176L162 182L138 144L162 132Z" fill="#14B8A6"/>
  <rect x="88" y="150" width="44" height="16" rx="8" fill="#F59E0B"/>
</svg>
